<!-- Generated by IcoMoon.io -->
<svg version="1.1" xmlns="http://www.w3.org/2000/svg" width="32" height="32" viewBox="0 0 32 32">
<path d="M28 0q-0.563 0.063-1.094 0.563l-12.625 14.531q-0.844 1 0 1.938l12.625 14.563q0.969 0.813 1.938 0 0.813-0.969 0-1.938l-11.844-13.719 11.844-13.719q0.813-0.969 0-1.938-0.406-0.344-0.844-0.281zM14.563 0q-0.75 0.063-1.125 0.563l-12.625 14.531q-0.813 1 0 1.938l12.625 14.563q0.969 0.813 1.969 0 0.813-0.969 0-1.938l-11.844-13.719 11.844-13.719q0.813-0.969 0-1.938-0.438-0.344-0.844-0.281z"></path>
</svg>
