<!-- Generated by IcoMoon.io -->
<svg version="1.1" xmlns="http://www.w3.org/2000/svg" width="32" height="32" viewBox="0 0 32 32">
<title>Search-Icon</title>
<path fill="#555" d="M12.999 22c-4.964 0-8.999-4.037-8.999-8.999 0-4.964 4.036-9.001 8.999-9.001s8.999 4.037 8.999 9.001c0 4.962-4.036 8.999-8.999 8.999zM23.483 20.656c1.575-2.151 2.516-4.793 2.516-7.655 0-7.168-5.831-13.001-12.999-13.001s-12.999 5.833-12.999 13.001c0 7.166 5.831 12.999 12.999 12.999 2.864 0 5.506-0.942 7.655-2.517l8.517 8.517 2.828-2.828c0 0-8.517-8.516-8.517-8.516z"></path>
</svg>
